<?xml version="1.0" encoding="UTF-8" ?>
<!DOCTYPE svg PUBLIC "-//W3C//DTD SVG 1.1//EN" "http://www.w3.org/Graphics/SVG/1.1/DTD/svg11.dtd">
<svg width="500pt" height="500pt" viewBox="0 0 500 500" version="1.1" xmlns="http://www.w3.org/2000/svg">
<g id="#a970ffff">
<path fill="#a970ff" opacity="1.00" d=" M 199.45 84.42 C 203.15 82.03 207.97 79.81 212.33 81.77 C 217.16 83.08 222.19 86.70 222.44 92.10 C 222.52 163.42 222.34 234.76 222.53 306.08 C 222.84 306.65 223.46 307.80 223.77 308.37 C 225.54 305.70 227.24 302.88 229.92 301.01 C 236.51 296.19 240.31 288.72 246.39 283.36 C 258.02 270.99 270.12 259.08 281.89 246.84 C 287.00 241.75 291.27 235.11 298.43 232.72 C 303.27 231.69 308.70 233.03 312.07 236.75 C 313.66 239.33 314.77 242.21 315.63 245.10 C 316.49 250.89 313.00 256.21 309.42 260.42 C 294.61 275.29 280.38 290.73 265.52 305.55 C 250.70 320.39 236.42 335.76 221.64 350.63 C 218.29 354.76 213.37 357.61 208.12 358.27 C 204.02 357.00 199.75 355.45 196.88 352.09 C 191.01 345.62 184.55 339.72 178.70 333.22 C 164.99 318.63 150.41 304.88 136.90 290.10 C 128.82 281.85 120.68 273.65 112.61 265.39 C 107.76 260.78 103.09 255.48 101.49 248.81 C 100.92 245.49 102.52 242.44 103.72 239.46 C 105.31 234.92 110.46 232.50 115.00 232.46 C 118.91 232.05 122.54 234.11 125.44 236.53 C 132.59 243.70 139.58 251.03 146.52 258.40 C 157.07 269.21 167.84 279.82 178.02 290.97 C 180.74 294.56 183.52 298.18 187.19 300.87 C 190.13 302.84 191.62 306.23 194.44 308.35 C 194.87 270.58 194.50 232.78 194.63 195.00 C 194.62 161.66 194.64 128.31 194.62 94.97 C 194.83 91.05 195.97 86.71 199.45 84.42 Z" />
<path fill="#a970ff" opacity="1.00" d=" M 482.84 192.97 C 486.56 191.20 490.13 189.00 494.17 188.00 C 496.03 189.98 495.96 192.48 495.28 194.93 C 496.28 198.90 496.26 203.06 495.27 207.02 C 496.38 211.61 495.93 216.34 496.00 221.00 C 496.00 269.02 496.00 317.04 496.00 365.06 C 496.36 367.04 494.66 369.56 492.46 368.71 C 485.69 365.78 479.58 361.38 472.48 359.25 C 466.04 354.78 458.35 352.51 452.06 347.80 C 442.59 342.83 432.87 338.35 423.45 333.29 C 418.95 330.53 414.36 326.88 408.77 327.32 C 408.15 329.55 406.68 331.59 406.73 333.98 C 406.73 346.32 406.73 358.65 406.74 370.99 C 406.70 374.42 407.09 377.97 405.79 381.24 C 404.84 387.98 400.18 393.20 397.07 399.00 C 392.49 402.00 388.99 406.24 385.02 409.95 C 379.22 413.52 372.52 415.18 365.97 416.66 C 259.31 416.71 152.65 416.68 45.99 416.68 C 39.02 415.84 32.53 412.84 26.16 410.06 C 19.62 403.12 11.17 397.26 7.94 387.91 C 5.63 385.26 5.70 381.72 4.57 378.57 C 3.63 372.36 5.49 365.83 3.13 359.83 C 2.90 342.10 2.89 324.31 3.20 306.60 C 2.51 302.44 4.05 298.29 5.83 294.60 C 9.95 287.35 21.34 286.36 27.00 292.23 C 28.48 295.33 30.76 298.37 30.57 301.96 C 30.54 323.34 30.58 344.72 30.54 366.10 C 30.40 368.54 31.61 370.74 32.04 373.09 C 32.69 377.67 35.64 381.45 38.26 385.08 C 41.30 386.72 44.60 388.15 48.00 388.73 C 153.01 388.73 258.02 388.73 363.03 388.73 C 366.51 388.11 369.96 386.68 373.05 384.94 C 375.95 380.87 378.51 376.52 380.46 371.92 C 380.67 347.35 380.40 322.77 380.58 298.21 C 382.10 294.03 385.67 290.96 389.49 288.80 C 392.17 288.43 394.92 288.49 397.61 288.78 C 404.52 292.13 411.39 295.57 418.20 299.11 C 429.21 306.14 441.47 310.90 452.81 317.32 C 456.87 320.67 461.92 322.17 466.76 323.95 C 467.30 321.98 468.41 320.14 468.46 318.06 C 468.44 291.04 468.44 264.01 468.46 236.99 C 468.57 235.30 466.87 234.27 466.13 232.93 C 460.09 236.38 453.42 238.72 447.67 242.71 C 445.24 244.49 442.10 244.84 439.57 246.45 C 433.74 250.58 427.02 253.17 420.76 256.55 C 414.47 259.97 407.58 262.32 401.79 266.60 C 397.66 268.54 392.40 270.05 388.25 267.45 C 382.20 264.08 378.09 256.03 381.63 249.51 C 383.31 245.00 388.22 243.40 391.74 240.67 C 394.65 238.39 397.99 236.82 401.51 235.71 C 408.37 230.84 416.62 228.45 423.55 223.69 C 431.19 220.03 438.34 215.24 446.44 212.48 C 451.53 208.95 457.31 206.64 462.72 203.66 C 468.99 199.34 476.07 196.41 482.84 192.97 Z" />
</g>
</svg>
